<?xml version="1.0" encoding="UTF-8" standalone="no"?>
<!-- Generator: Adobe Illustrator 27.7.0, SVG Export Plug-In . SVG Version: 6.00 Build 0)  -->

<svg
   version="1.1"
   id="Layer_1"
   x="0px"
   y="0px"
   viewBox="0 0 700 433.7"
   style="enable-background:new 0 0 700 433.7;"
   xml:space="preserve"
   xmlns="http://www.w3.org/2000/svg"
   xmlns:svg="http://www.w3.org/2000/svg"><defs
   id="defs5242" />
<style
   type="text/css"
   id="style5015">
	.st0{fill:#231F20;}
	.st1{fill:#F05A28;}
	.st2{fill:none;stroke:#009DDC;stroke-width:6.2344;stroke-miterlimit:10;}
	.st3{fill:none;stroke:#F05A28;stroke-width:6.2344;stroke-miterlimit:10;}
	.st4{filter:url(#Adobe_OpacityMaskFilter);}
	.st5{mask:url(#SVGID_1_);}
	.st6{fill:#009345;stroke:#231F20;stroke-width:2.4284;stroke-miterlimit:22.9256;}
	.st7{fill:#8A5D3B;stroke:#231F20;stroke-width:2.4284;stroke-miterlimit:10;}
	.st8{fill:#8A5D3B;}
	.st9{fill:#FFFFFF;}
	.st10{fill:#FFFFFF;stroke:#231F20;stroke-width:1.5643;stroke-miterlimit:10;}
	.st11{fill:#231F20;stroke:#8A5D3B;stroke-width:2.8948;stroke-miterlimit:10;}
	.st12{opacity:0.3;fill:#231F20;}
	.st13{fill:#8A5D3B;stroke:#231F20;stroke-width:2.5345;stroke-miterlimit:10;}
	.st14{fill:#F05A28;stroke:#231F20;stroke-width:1.4437;stroke-miterlimit:10;}
	.st15{font-family:'AmericanCaptain01';}
	.st16{font-size:31.6967px;}
</style>
<g
   id="g5155">
	<g
   id="g5033">
		<g
   id="g5031">
			<path
   class="st0"
   d="M315.1,298.5l-3.5-17.9h20.7c1.5,0,2.3-0.7,2.3-2v-17.5c0-1.3-0.3-2.1-0.8-2.4c-0.5-0.3-1.5-0.4-2.8-0.4h-10     c-1.4,0-2.8-0.1-4.1-0.3c-1.3-0.2-2.4-0.7-3.5-1.5c-1-0.8-1.8-1.9-2.4-3.3c-0.6-1.4-0.9-3.3-0.9-5.7v-32.7c0-3.8,1-6.8,3.1-9.1     c2.1-2.3,5.4-3.4,9.9-3.4h26.6l3.3,17.9h-21.8c-1.6,0-2.4,0.7-2.4,2.1v17.5c0,1,0.2,1.6,0.7,2c0.5,0.4,1.2,0.5,2.2,0.5H344     c3.1,0,5.5,0.7,7.1,2.2c1.6,1.5,2.5,4,2.5,7.6v31.8c0,5.3-1.1,9.1-3.3,11.3c-2.2,2.2-6,3.3-11.5,3.3H315.1z"
   id="path5017" />
			<path
   class="st0"
   d="M376.6,298.5c-5.6,0-9.5-1.1-11.7-3.5c-2.2-2.3-3.3-6.1-3.3-11.4v-81.5h19.7v77.3c0,0.7,0.1,1.2,0.3,1.6     c0.2,0.4,0.7,0.5,1.5,0.5h6.8c0.8,0,1.3-0.2,1.5-0.5c0.2-0.4,0.3-0.9,0.3-1.6v-77.3h19.7v81.5c0,5.3-1.1,9.1-3.3,11.4     c-2.2,2.3-6.1,3.5-11.7,3.5H376.6z"
   id="path5019" />
			<path
   class="st0"
   d="M457.2,202.2c3.8,0,6.7,1.1,8.6,3.2c1.9,2.1,2.9,5,2.9,8.5V260c0,1.9-0.2,3.6-0.6,5.1     c-0.4,1.6-1.1,2.9-2.2,4.1c-1.1,1.2-2.5,2.1-4.3,2.7c-1.8,0.7-4,1-6.6,1h-16.5v25.6h-19.1v-96.3H457.2z M438.5,219.1v37.9h9.6     c0.8,0,1.3-0.2,1.5-0.5c0.2-0.3,0.3-0.8,0.3-1.5v-34c0-1.2-0.6-1.9-1.7-1.9H438.5z"
   id="path5021" />
			<path
   class="st0"
   d="M514.1,202.2c3.8,0,6.7,1.1,8.6,3.2c1.9,2.1,2.9,5,2.9,8.5V260c0,1.9-0.2,3.6-0.6,5.1     c-0.4,1.6-1.1,2.9-2.2,4.1c-1.1,1.2-2.5,2.1-4.3,2.7c-1.8,0.7-4,1-6.6,1h-16.5v25.6h-19.1v-96.3H514.1z M495.4,219.1v37.9h9.6     c0.8,0,1.3-0.2,1.5-0.5c0.2-0.3,0.3-0.8,0.3-1.5v-34c0-1.2-0.6-1.9-1.7-1.9H495.4z"
   id="path5023" />
			<path
   class="st0"
   d="M583.1,284.8c0,1.9-0.2,3.6-0.7,5.2c-0.4,1.6-1.2,3.1-2.3,4.3c-1.1,1.2-2.5,2.2-4.3,3     c-1.8,0.8-4,1.1-6.6,1.1h-22.3c-2.7,0-4.9-0.4-6.6-1.1c-1.8-0.8-3.2-1.7-4.3-3c-1.1-1.2-1.8-2.7-2.3-4.3     c-0.4-1.6-0.7-3.4-0.7-5.2v-70.2c0-3.8,1-6.8,3.1-9.1c2.1-2.3,5.4-3.4,9.9-3.4h23.9c4.5,0,7.8,1.1,9.9,3.4     c2.1,2.3,3.1,5.3,3.1,9.1V284.8z M554.3,219.1c-1.2,0-1.7,0.6-1.7,1.9v58.7c0,0.7,0.1,1.2,0.3,1.5c0.2,0.3,0.7,0.5,1.5,0.5h7.3     c0.8,0,1.3-0.2,1.5-0.5c0.2-0.3,0.3-0.8,0.3-1.5v-58.7c0-1.2-0.6-1.9-1.7-1.9H554.3z"
   id="path5025" />
			<path
   class="st0"
   d="M640.6,259.3c0,2.1-0.7,4.1-2.2,5.8c-1.5,1.8-3.6,2.7-6.4,2.7l10.1,30.7h-19.9l-9.3-30.7h-2.5v30.7h-19.3     v-96.3h36.5c4.5,0,7.8,1.1,9.9,3.4c2.1,2.3,3.1,5.3,3.1,9.1V259.3z M610.3,219.1v33.2h9.4c1.2,0,1.9-0.7,1.9-2v-29.2     c0-1.3-0.6-2-1.9-2H610.3z"
   id="path5027" />
			<path
   class="st0"
   d="M686.6,202.2l4.8,17.9h-12.9v78.4h-19.7v-78.4h-12.9l5-17.9H686.6z"
   id="path5029" />
		</g>
	</g>
	<g
   id="g5047">
		<g
   id="g5045">
			<path
   class="st1"
   d="M381.4,130.1c0,3-1,5.7-3.1,8.2c-2.1,2.5-5.1,3.7-9,3.7l14.2,43.1h-28l-13-43.1h-3.5V185h-27V49.9h51.3     c6.3,0,11,1.6,13.9,4.8c2.9,3.2,4.4,7.4,4.4,12.8V130.1z M338.9,73.6v46.6h13.2c1.7,0,2.6-0.9,2.6-2.8v-41c0-1.9-0.9-2.8-2.6-2.8     H338.9z"
   id="path5035" />
			<path
   class="st1"
   d="M463,165.8c0,2.6-0.3,5.1-0.9,7.4c-0.6,2.3-1.7,4.3-3.2,6.1c-1.5,1.7-3.5,3.1-6,4.2     c-2.5,1.1-5.6,1.6-9.3,1.6h-31.3c-3.7,0-6.8-0.5-9.3-1.6c-2.5-1.1-4.5-2.5-6-4.2c-1.5-1.7-2.5-3.8-3.2-6.1     c-0.6-2.3-0.9-4.8-0.9-7.4V67.4c0-5.3,1.5-9.6,4.4-12.8c2.9-3.2,7.5-4.8,13.9-4.8h33.6c6.3,0,11,1.6,13.9,4.8     c2.9,3.2,4.4,7.4,4.4,12.8V165.8z M422.6,73.6c-1.6,0-2.4,0.9-2.4,2.6v82.4c0,1,0.2,1.7,0.5,2.1c0.3,0.4,1,0.7,2.1,0.7H433     c1.1,0,1.8-0.2,2.1-0.7c0.3-0.4,0.5-1.1,0.5-2.1V76.2c0-1.7-0.8-2.6-2.4-2.6H422.6z"
   id="path5037" />
			<path
   class="st1"
   d="M474.2,66.3c0-5,1.3-8.9,4-11.9c2.7-3,6.7-4.5,12-4.5h38.6l4.7,25.2h-29.6c-1.6,0-2.4,0.9-2.4,2.6v80.1     c0,1.7,0.8,2.6,2.4,2.6h12.3v-53.3h26.3V185h-47.2c-7.8,0-13.3-1.6-16.4-4.8c-3.1-3.2-4.7-8.6-4.7-16V66.3z"
   id="path5039" />
			<path
   class="st1"
   d="M574.1,185c-7.8,0-13.3-1.6-16.4-4.8c-3.1-3.2-4.7-8.6-4.7-16V49.9h27.6v108.5c0,1,0.2,1.7,0.5,2.2     c0.3,0.5,1,0.7,2.1,0.7h9.5c1.1,0,1.8-0.2,2.1-0.7c0.3-0.5,0.5-1.2,0.5-2.2V49.9H623v114.3c0,7.5-1.6,12.8-4.7,16     c-3.1,3.2-8.6,4.8-16.4,4.8H574.1z"
   id="path5041" />
			<path
   class="st1"
   d="M634.2,49.9h52.6l4.7,25.2h-29.4v32.1h22.4v23.3h-22.4v29.5h28.3l-4.7,25.2h-51.4V49.9z"
   id="path5043" />
		</g>
	</g>
	<g
   id="g5141">
		<g
   id="g5055">
			<path
   class="st0"
   d="M266.9,152.3c0,50.2-66.6,122.1-102.4,157.1c-12.3,12.1-32,12.1-44.4,0c-35.8-35-102.4-106.9-102.4-157.1     C17.8,83.7,73.5,28,142.3,28S266.9,83.7,266.9,152.3z"
   id="path5049" />
			<path
   class="st2"
   d="M266.9,152.3c0,50.2-66.6,122.1-102.4,157.1c-12.3,12.1-32,12.1-44.4,0c-35.8-35-102.4-106.9-102.4-157.1     C17.8,83.7,73.5,28,142.3,28S266.9,83.7,266.9,152.3z"
   id="path5051" />
			<path
   class="st3"
   d="M142.3,324.5c-9.9,0-19.3-3.8-26.4-10.8C77,275.7,11.7,204.1,11.7,152.3c0-71.9,58.6-130.4,130.6-130.4     c72,0,130.6,58.5,130.6,130.4c0,51.8-65.3,123.4-104.2,161.4C161.6,320.7,152.3,324.5,142.3,324.5z"
   id="path5053" />
		</g>
		<defs
   id="defs5060">
			<filter
   id="Adobe_OpacityMaskFilter"
   filterUnits="userSpaceOnUse"
   x="33.7"
   y="10.2"
   width="223.3"
   height="316.2">
				
					<feColorMatrix
   type="matrix"
   values="-1 0 0 0 1  0 -1 0 0 1  0 0 -1 0 1  0 0 0 1 0"
   color-interpolation-filters="sRGB"
   result="source"
   id="feColorMatrix5057" />
			</filter>
		</defs>
		<mask
   maskUnits="userSpaceOnUse"
   x="33.7"
   y="10.2"
   width="223.3"
   height="316.2"
   id="SVGID_1_">
			<g
   class="st4"
   id="g5064">
				<path
   class="st0"
   d="M141,9.7C69.9,9.7,13.2,81.1,13.2,152.3c0,51.3,65.1,122.7,103.8,160.7c7,6.8,16.1,10.2,25.3,10.2      c9.1,0,18.3-3.4,25.3-10.2c38.8-38,103.8-109.4,103.8-160.7C271.4,81.1,212.2,9.7,141,9.7z"
   id="path5062" />
			</g>
		</mask>
		<g
   class="st5"
   mask="url(#SVGID_1_)"
   id="g5139">
			<path
   class="st6"
   d="M223,202.1l15.3,15.3c0,0,0,61-76.3,76.3"
   id="path5067" />
			<path
   class="st6"
   d="M158.8,325c-4.8,0.4-8.9,0.1-12-0.9c-7.2-2.4,7.6-22.9,7.6-22.9l50-21.9C204.4,279.4,180.3,314.6,158.8,325z     "
   id="path5069" />
			<path
   class="st6"
   d="M154.4,308.9c5.9-2.9,19.7-7,36.7-13.1c20.4-15.3,67.3-82,64.5-83c-7.2-2.4-6.3-0.9-17.3,4.6     C230.6,232.6,162,301.3,154.4,308.9z"
   id="path5071" />
			<path
   class="st6"
   d="M70.5,209.7L55.3,225c0,0,0,61,76.3,76.3"
   id="path5073" />
			<path
   class="st6"
   d="M121.8,323.9c7,1.5,13.2,1.9,17.3,0.2c7.1-2.8,0-15.3,0-15.3L75.6,276C75.6,276,108.5,313.3,121.8,323.9z"
   id="path5075" />
			<path
   class="st6"
   d="M139.1,316.5c-7.3-3.6-25-10.8-45.8-21.4c-19.2-16.5-60.9-72.8-58.4-73.7c10.5-3.8,8-2.6,20.3,3.6     C62.9,240.2,131.5,308.9,139.1,316.5z"
   id="path5077" />
			<g
   id="g5137">
				<g
   id="g5085">
					<path
   class="st8"
   d="M168.2,236.7c-23,11.8-71.6,41.5-71.6,41.5l34.9,44.8c0,0,11.1,1.8,15.3,1.1c0,0,1.9-3.7,4.3-7.6       c21.8-35.1,61.1-101.6,61.1-101.6l-143.4-6.2c0,0,22.4,57.7,27.9,69.5"
   id="path5079" />
					<g
   id="g5083">
						<path
   class="st0"
   d="M167.6,235.7c-5.4,2.8-10.6,5.7-15.9,8.6c-6.1,3.5-12.2,7-18.3,10.5c-5.9,3.4-11.8,6.9-17.6,10.4        c-4.5,2.7-9,5.4-13.5,8.1c-2.1,1.2-4.2,2.4-6.2,3.7c0,0-0.1,0-0.1,0.1c-0.7,0.4-0.7,1.3-0.2,1.9c1.9,2.5,3.9,5,5.8,7.5        c4.2,5.4,8.4,10.8,12.6,16.2c4,5.2,8,10.3,12,15.5c1.2,1.5,2.4,3,3.6,4.6c0.3,0.3,0.5,0.7,0.8,1c0.4,0.4,0.9,0.5,1.4,0.5        c3.9,0.6,7.8,1.1,11.7,1.2c0.9,0,1.8,0,2.6-0.1c0.6-0.1,1.2-0.1,1.5-0.7c0.1-0.2,0.2-0.4,0.3-0.6c1.3-2.5,2.7-4.9,4.1-7.3        c4.7-7.6,9.4-15.2,14-22.9c5.2-8.5,10.3-17,15.4-25.5c4.8-8.1,9.7-16.1,14.5-24.2c3.7-6.3,7.5-12.6,11.2-18.9        c1.9-3.1,3.7-6.3,5.6-9.4c0.1-0.1,0.2-0.3,0.2-0.4c0.5-0.8-0.1-1.8-1-1.8c-1.3-0.1-2.6-0.1-3.9-0.2c-3.5-0.2-7-0.3-10.4-0.5        c-5.1-0.2-10.3-0.4-15.4-0.7c-6.3-0.3-12.6-0.5-18.9-0.8c-6.8-0.3-13.7-0.6-20.5-0.9c-7-0.3-13.9-0.6-20.9-0.9        c-6.5-0.3-12.9-0.6-19.4-0.8c-5.5-0.2-10.9-0.5-16.4-0.7c-3.9-0.2-7.9-0.3-11.8-0.5c-1.9-0.1-3.7-0.2-5.6-0.2        c-0.1,0-0.2,0-0.2,0c-0.7,0-1.5,0.8-1.2,1.5c0.8,2,1.5,3.9,2.3,5.9c1.9,4.8,3.8,9.6,5.7,14.4c2.4,6.1,4.8,12.2,7.3,18.4        c2.3,5.9,4.7,11.8,7.1,17.6c1.7,4.2,3.4,8.4,5.3,12.5c0.1,0.3,0.3,0.6,0.4,1c0.3,0.6,1.1,0.7,1.7,0.4c0.6-0.4,0.7-1.1,0.4-1.7        c-0.7-1.5-1.4-3.1-2.1-4.6c-0.5-1.2-0.8-1.9-1.3-3c-0.5-1.2-1-2.4-1.5-3.6c-2.4-5.7-4.7-11.5-7-17.2        c-2.5-6.2-4.9-12.3-7.3-18.5c-2-5-3.9-10-5.9-15.1c-0.6-1.6-1.3-3.2-1.9-4.8c-0.3-0.7-0.5-1.6-0.9-2.3c0,0,0-0.1,0-0.1        c-0.4,0.5-0.8,1-1.2,1.5c1.3,0.1,2.6,0.1,3.9,0.2c3.5,0.2,7,0.3,10.4,0.5c5.1,0.2,10.3,0.4,15.4,0.7        c6.3,0.3,12.6,0.5,18.9,0.8c6.8,0.3,13.7,0.6,20.5,0.9c7,0.3,13.9,0.6,20.9,0.9c6.5,0.3,12.9,0.6,19.4,0.8        c5.5,0.2,10.9,0.5,16.4,0.7c3.9,0.2,7.9,0.3,11.8,0.5c1.8,0.1,3.7,0.2,5.6,0.2c0.1,0,0.2,0,0.2,0c-0.3-0.6-0.7-1.2-1-1.8        c-1.5,2.6-3,5.1-4.5,7.6c-3.9,6.5-7.7,13-11.6,19.5c-5.2,8.7-10.4,17.5-15.6,26.2c-5.6,9.3-11.1,18.5-16.7,27.7        c-2.6,4.3-5.2,8.5-7.8,12.8c-2.8,4.5-5.6,8.9-8.1,13.6c-0.3,0.6-0.6,1.2-0.9,1.8c0.2-0.2,0.5-0.4,0.7-0.6c0.3,0-0.2,0-0.2,0        c-0.2,0-0.3,0-0.5,0c-0.3,0-0.6,0-1,0c-0.7,0-1.5,0-2.2-0.1c-1.7-0.1-3.3-0.2-5-0.4c-2.1-0.2-3.7-0.4-5.8-0.8        c0.2,0.1,0.4,0.2,0.5,0.3c-1.2-1.5-2.3-3-3.5-4.5c-2.8-3.6-5.6-7.1-8.3-10.7c-3.4-4.3-6.7-8.6-10.1-12.9        c-2.9-3.7-5.8-7.4-8.7-11.1c-1-1.2-1.9-2.5-2.9-3.7c-0.4-0.6-0.9-1.2-1.4-1.8c0,0,0-0.1-0.1-0.1c-0.1,0.6-0.2,1.3-0.2,1.9        c1.7-1,3.3-2,5-3c4.2-2.6,8.5-5.1,12.8-7.7c5.8-3.4,11.5-6.9,17.3-10.3c6.1-3.6,12.2-7.1,18.4-10.6c5.4-3.1,10.9-6.1,16.4-9        c0.6-0.3,1.1-0.6,1.7-0.9C170.3,237,169,234.9,167.6,235.7L167.6,235.7z"
   id="path5081" />
					</g>
				</g>
				<polygon
   class="st9"
   points="177.5,201 171.7,220.6 162,238 135.9,253.2 114.9,234.7 98.2,198.3 104.8,203.4 116.9,215.3       131.9,225.9 137.8,228.4 144.6,228 151.6,224.8 162.9,216     "
   id="polygon5087" />
				<path
   class="st10"
   d="M96.7,193.7c1.3,2.5,29.9,36.5,45.2,34.6c12.7,0.1,39.5-30.1,44.4-39.2l10.6-21.3l2.4-15.5v-13.4l1.5-24.7      l0.5-15.6l-24.1-28.4l-30.5-5.5c0,0-19.2,9.7-20.9,9.7S96.7,89,96.7,89l-15.4,15.4l0.5,7.7l3.2,57.6L96.7,193.7z"
   id="path5089" />
				<g
   id="g5095">
					<path
   class="st0"
   d="M155,81.8c-3.4,0.6-4.9,5.7-7.6,8c-7.9,6.4-26.3,12.3-33.8,9.7c10.2-0.6,9.9-8.2,17.5-11.3       c-6.7,1.4-25.3,13.2-36.2,9.3c3.3-2.1,2.7-15.1,3-16.8c2.7,0.4,45.1-5.9,52.9-5.5C160.5,75.5,155,81.8,155,81.8z"
   id="path5091" />
					<path
   class="st0"
   d="M153.5,80.5c1.1,0,8.9,14,1,16.5c4.4,2.9,13.4-5.7,14.4-7.8c1-2-13.4-12.8-13.4-12.8L153.5,80.5z"
   id="path5093" />
				</g>
				<path
   class="st11"
   d="M197.8,105.2c0,0,29.8,18.8,31.6,20.6c4.5,4.5,53.8,71.7-63.4,115.7c-15,4.3-12.1,2-7.5-1.6      c10-7.9,20.1-24.2,24.2-36.4C207.2,179.3,197.8,105.2,197.8,105.2z"
   id="path5097" />
				<path
   class="st0"
   d="M196.5,105.2c0,0,29.8,18.8,31.6,20.6c4.8,4.8,54.4,71.4-63.4,115.7c-15,4.3-66.1,36-68,36.7      c0.9-1.7,59.1-39.4,63.8-43c10-7.9,13-23.4,17.2-35.6C202,175.3,196.5,105.2,196.5,105.2z"
   id="path5099" />
				<path
   class="st11"
   d="M59.8,120.8c-3.2,3.2-73.7,57.8,53.1,122.5c3.6,2.6,23.4,10.7,23.4,10.7c-9.4-6.7-48-58.1-50.4-62.5      c-9.4-14.4-12.1-57.5-12.1-72.7C69.2,121.1,59.8,120.8,59.8,120.8z"
   id="path5101" />
				<path
   class="st0"
   d="M61.3,120.8c-3.2,3.2-73.7,57.8,53.1,122.5c3.6,2.6,23.4,10.7,23.4,10.7c-9.4-6.7-37.9-56.6-40.4-61.1      C88,178.5,84.3,127.3,84.3,112C79.7,114.4,61.3,120.8,61.3,120.8z"
   id="path5103" />
				<path
   class="st9"
   d="M200.8,119.2c2.5-0.4,9.4,12.4,6.4,24c-0.6,2.3-4.2,2.6-5.2,0.5L200.8,119.2z"
   id="path5105" />
				<path
   class="st9"
   d="M81.3,119.2c-2.5-0.4-9.4,12.4-6.4,24c0.6,2.3,4.2,2.6,5.2,0.5L81.3,119.2z"
   id="path5107" />
				<g
   id="g5121">
					<g
   id="g5113">
						<path
   class="st0"
   d="M92.5,117.6L92.5,117.6c1.5-0.5,2.8-0.8,3.8-0.8c-2.2,3.6-5.3,11.4-5,16c-2-2.7-4-2.9-7.2-3.2l-2.4-10        c1.3-0.8,4.4,0.7,5.9-0.1C89.4,118.8,91.1,118.1,92.5,117.6"
   id="path5109" />
						<path
   class="st0"
   d="M188.8,117.1c-1.5-0.5-3-0.9-4.2-0.9c2.5,4.3,5.6,12,5,16c2-2.7,4.9-5.5,8-5.7v-4.8c-1.5-1-3.3-2.1-5.2-3        C191.2,118.1,190,117.5,188.8,117.1"
   id="path5111" />
					</g>
					<g
   id="g5119">
						<path
   class="st0"
   d="M127.3,121.2H99.6c-0.8,0-1.6,0.3-2.2,0.9l0,0c-0.6,0.5-0.9,1.3-0.9,2.2v12.5c0,2.9,1.2,5.5,3,7.3l0,0        c1.9,1.9,4.5,3,7.3,3h13.7c2.7,0,5.1-1.1,6.9-2.9c1.8-1.8,2.9-4.2,2.9-6.9v-13.1c0-0.8-0.3-1.6-0.9-2.2h0        C128.9,121.6,128.1,121.2,127.3,121.2 M99.6,116.1h27.7c2.3,0,4.3,0.9,5.8,2.4l0,0c1.5,1.5,2.4,3.5,2.4,5.8v3.5h12.9v-3.5        c0-2.3,0.9-4.3,2.4-5.8l0,0l0,0c1.5-1.5,3.5-2.4,5.8-2.4h27.7c2.3,0,4.3,0.9,5.8,2.4l0,0c1.5,1.5,2.4,3.5,2.4,5.8v12.5        c0,4.3-1.7,8.2-4.6,11l0,0c-2.8,2.8-6.7,4.6-11,4.6h-13.7c-4.1,0-7.8-1.7-10.5-4.4c-2.7-2.7-4.4-6.4-4.4-10.6v-4.5h-12.9v4.5        c0,4.1-1.7,7.8-4.4,10.6c-2.7,2.7-6.4,4.4-10.6,4.4h-13.7c-4.3,0-8.1-1.7-11-4.6l0,0l0,0c-2.8-2.8-4.6-6.7-4.6-11v-12.5        c0-2.3,0.9-4.3,2.4-5.8l0,0l0,0C95.2,117,97.3,116.1,99.6,116.1z M184.4,121.2h-27.7c-0.8,0-1.6,0.3-2.2,0.9l0,0        c-0.6,0.5-0.9,1.3-0.9,2.2v13.1c0,2.7,1.1,5.1,2.9,6.9c1.8,1.8,4.2,2.9,6.9,2.9h13.7c2.9,0,5.5-1.2,7.3-3.1h0        c1.9-1.9,3-4.5,3-7.3v-12.5c0-0.8-0.3-1.6-0.9-2.2h0C186,121.6,185.2,121.2,184.4,121.2z"
   id="path5115" />
						<path
   class="st0"
   d="M188.8,117.1c-1.5-0.5-3-0.9-4.2-0.9c2.5,4.3,5.6,12,5,16c2-2.7,4.9-5.5,8-5.7v-4.8c-1.5-1-3.3-2.1-5.2-3        C191.2,118.1,190,117.5,188.8,117.1"
   id="path5117" />
					</g>
				</g>
				<g
   id="g5125">
					<path
   class="st0"
   d="M103.6,177.1c6.4,5.4,13.7,9.5,21.6,12.3c7.2,2.5,14.8,3.9,22.4,4.2c3.9,0.1,7.8,0,11.7-0.5       c0.6-0.1,1.1-0.4,1.1-1.1c0-0.5-0.5-1.2-1.1-1.1c-6.9,0.9-14.1,0.7-20.9-0.4c-7.6-1.2-15.1-3.7-21.9-7.3       c-4.1-2.2-7.9-4.7-11.4-7.7c-0.4-0.4-1.1-0.4-1.5,0C103.2,176,103.2,176.8,103.6,177.1L103.6,177.1z"
   id="path5123" />
				</g>
				<g
   id="g5131">
					<g
   id="g5129">
						<path
   class="st0"
   d="M137,200.4c3.7,1.1,7.7,1.3,11.5,0.9c1.7-0.2,3.3-0.4,4.9-0.9c1.1-0.4,2.3-0.8,3.2-1.7        c0.5-0.5-0.3-1.2-0.7-0.7c-0.8,0.8-1.9,1.2-3,1.5c-1.5,0.5-3.1,0.7-4.7,0.9c-3.6,0.3-7.3,0.1-10.8-0.9        C136.6,199.2,136.3,200.2,137,200.4L137,200.4z"
   id="path5127" />
					</g>
				</g>
				<path
   class="st12"
   d="M82.4,150.6c4.5-4.5,57.3-31.6,64.3-38.6c9.5-9.5,63.8,48.8,68.1,48.8c4.3,0,21.2-23.4,21.2-23.4      L209.9,100l-45.3-25.6l-26.8-9.7L103.3,75L88.5,91.5l-20.2,18.3l-7,11l-5.2,12L82.4,150.6z"
   id="path5133" />
				<path
   class="st13"
   d="M152.9,76.2c3.9,6.2,23.7,18.6,42.5,29.9c13.5,8.1,33.1,20.4,40.6,31.3C227.9,82.5,156.3,4.6,143,12      c-2.6,22.8-39.6-0.9-86.9,113.7c5.2-4.9,16.7-8.5,25.7-13.7C108.1,96.8,147.7,68,152.9,76.2z"
   id="path5135" />
			</g>
		</g>
	</g>
	<g
   id="g5153">
		<g
   id="g5145">
			<circle
   class="st14"
   cx="103.3"
   cy="270.6"
   r="16.6"
   id="circle5143" />
		</g>
		<g
   id="g5151">
			<path
   class="st0"
   d="M102.8,272.8c0,0.4-0.1,0.8-0.4,1.1c-0.3,0.3-0.7,0.5-1.2,0.5l2,6h-3.9l-1.8-6h-0.5v6h-3.7v-18.7h7.1     c0.9,0,1.5,0.2,1.9,0.7c0.4,0.4,0.6,1,0.6,1.8V272.8z M96.9,265v6.4h1.8c0.2,0,0.4-0.1,0.4-0.4v-5.7c0-0.3-0.1-0.4-0.4-0.4H96.9z     "
   id="path5147" />
			<path
   class="st0"
   d="M105.2,280.4l-0.7-3.5h4c0.3,0,0.4-0.1,0.4-0.4v-3.4c0-0.3-0.1-0.4-0.2-0.5c-0.1-0.1-0.3-0.1-0.5-0.1h-1.9     c-0.3,0-0.5,0-0.8-0.1c-0.2,0-0.5-0.1-0.7-0.3c-0.2-0.2-0.4-0.4-0.5-0.6s-0.2-0.6-0.2-1.1v-6.3c0-0.7,0.2-1.3,0.6-1.8     c0.4-0.4,1-0.7,1.9-0.7h5.2l0.6,3.5h-4.2c-0.3,0-0.5,0.1-0.5,0.4v3.4c0,0.2,0,0.3,0.1,0.4c0.1,0.1,0.2,0.1,0.4,0.1h2.3     c0.6,0,1.1,0.1,1.4,0.4c0.3,0.3,0.5,0.8,0.5,1.5v6.2c0,1-0.2,1.8-0.6,2.2c-0.4,0.4-1.2,0.6-2.2,0.6H105.2z"
   id="path5149" />
		</g>
	</g>
</g>
<rect
   x="7.4"
   y="345.7"
   class="st0"
   width="685.2"
   height="76.5"
   id="rect5157" />
<g
   id="g5237">
	<g
   id="g5161">
		<g
   aria-label="Powered by"
   transform="matrix(1 0 0 1 30.9827 395.8971)"
   id="text5159"
   class="st9 st15 st16"
   style="font-size:31.6967px;font-family:AmericanCaptain01;fill:#ffffff"><path
     d="m 5.0080785,-19.556863 v 10.0161566 h 2.5674326 q 0.5388439,0 0.6656307,-0.1901802 0.1267868,-0.2218769 0.1267868,-0.6656304 v -8.431322 q 0,-0.380361 -0.1584835,-0.538844 -0.1584835,-0.19018 -0.6022373,-0.19018 z m 7.2902405,10.5866971 q 0,1.267868 -0.792417,1.9968921 -0.792418,0.6973274 -2.2821625,0.6973274 H 5.0080785 V 0 H 0.95090097 V -23.0435 H 9.4456163 q 1.4897447,0 2.1553757,0.729024 0.697327,0.729024 0.697327,1.965195 z"
     id="path9470" /><path
     d="m 20.34931,-3.3281534 q 0.348664,0 0.475451,-0.09509 0.158483,-0.09509 0.158483,-0.5071472 v -9.2554363 q 0,-0.412057 -0.158483,-0.538844 -0.158484,-0.126787 -0.507147,-0.126787 h -1.933499 q -0.316967,0 -0.507147,0.126787 -0.158484,0.126787 -0.158484,0.538844 v 9.2554363 q 0,0.4120571 0.158484,0.5071472 0.158483,0.09509 0.47545,0.09509 z M 14.105061,-14.834055 q 0,-2.123679 2.091982,-2.123679 h 6.307643 q 2.091982,0 2.091982,2.123679 V -2.1236788 Q 24.596668,0 22.504686,0 h -6.307643 q -2.091982,0 -2.091982,-2.1236788 z"
     id="path9472" /><path
     d="M 35.215088,-9.1286494 33.440073,0 h -3.518334 l -4.120571,-16.957734 h 4.120571 L 31.982025,-5.9589794 34.1374,-16.957734 h 2.250466 l 1.996892,10.8719678 2.028589,-10.8719678 h 4.057177 L 40.47674,0 h -3.581727 z"
     id="path9474" /><path
     d="m 49.288408,-4.1839643 q 0,0.4437538 0.158483,0.5071472 0.158484,0.063393 0.475451,0.063393 h 5.642012 L 54.803633,0 h -7.19515 Q 46.689278,0 46.182131,-0.47545049 45.674984,-0.98259767 45.674984,-1.9018019 V -14.897449 q 0,-1.045991 0.538844,-1.553138 0.57054,-0.507147 1.489745,-0.507147 h 6.117463 q 0.919204,0 1.458048,0.507147 0.538844,0.475451 0.538844,1.521442 v 8.5898052 h -6.52952 z m 0,-4.7228082 h 3.201366 V -13.05904 q 0,-0.412057 -0.19018,-0.507147 -0.158483,-0.126787 -0.47545,-0.126787 h -1.901802 q -0.316967,0 -0.475451,0.126787 -0.158483,0.09509 -0.158483,0.507147 z"
     id="path9476" /><path
     d="m 57.7197,-16.957734 h 3.708514 v 1.775015 l 1.521441,-1.775015 h 3.391547 l -0.982598,3.518334 h -2.187072 l -1.648228,1.965195 V 0 H 57.7197 Z"
     id="path9478" /><path
     d="m 70.96895,-4.1839643 q 0,0.4437538 0.158483,0.5071472 0.158484,0.063393 0.475451,0.063393 h 5.642012 L 76.484175,0 h -7.19515 Q 68.36982,0 67.862673,-0.47545049 67.355526,-0.98259767 67.355526,-1.9018019 V -14.897449 q 0,-1.045991 0.538844,-1.553138 0.57054,-0.507147 1.489745,-0.507147 h 6.117463 q 0.919204,0 1.458048,0.507147 0.538844,0.475451 0.538844,1.521442 v 8.5898052 h -6.52952 z m 0,-4.7228082 h 3.201366 V -13.05904 q 0,-0.412057 -0.19018,-0.507147 -0.158483,-0.126787 -0.47545,-0.126787 h -1.901802 q -0.316967,0 -0.475451,0.126787 -0.158483,0.09509 -0.158483,0.507147 z"
     id="path9480" /><path
     d="M 86.278426,-16.957734 V -23.0435 h 3.613423 V 0 H 86.278426 V -1.7750152 L 84.788681,0 H 81.365437 Q 80.414536,0 79.907389,-0.50714719 79.400242,-1.0459911 79.400242,-1.996892 v -12.837163 q 0,-2.123679 2.155375,-2.123679 z m -2.630827,3.26476 q -0.316967,0 -0.47545,0.126787 -0.158484,0.09509 -0.158484,0.507147 v 8.9701658 q 0,0.4437538 0.158484,0.5388439 0.158483,0.063393 0.47545,0.063393 h 2.630827 V -13.692974 Z"
     id="path9482" /><path
     d="m 104.0603,-16.957734 q 2.18707,0 2.18707,2.091982 v 12.86886 q 0,0.9509009 -0.50715,1.48974481 Q 105.26477,0 104.31387,0 h -3.42324 L 99.369188,-1.7750152 V 0 h -3.613424 v -23.0435 h 3.613424 v 6.085766 z m -4.691112,3.26476 v 10.2063371 h 2.599132 q 0.34866,0 0.50714,-0.09509 0.15849,-0.09509 0.15849,-0.5388439 v -8.9067721 q 0,-0.412057 -0.15849,-0.538844 -0.15848,-0.126787 -0.50714,-0.126787 z"
     id="path9484" /><path
     d="m 112.9037,0 h -1.61653 l -3.8353,-16.957734 h 4.12057 l 2.28216,12.5201961 2.66252,-12.5201961 h 4.05718 l -5.7054,23.6140408 h -3.55003 z"
     id="path9486" /></g>
	</g>
	<g
   id="g5235">
		<g
   id="g5203">
			<g
   id="g5181">
				<path
   class="st9"
   d="M236.9,387c0-1.7,0.3-3.4,0.8-4.9c0.6-1.5,1.4-2.9,2.4-4c1.1-1.1,2.3-2,3.9-2.7c1.5-0.7,3.2-1,5.2-1      c1.3,0,2.4,0.1,3.5,0.3c1.1,0.2,2.1,0.6,3.1,1l-1.4,5.4c-0.6-0.2-1.3-0.5-2.1-0.6c-0.8-0.2-1.6-0.3-2.5-0.3      c-2,0-3.5,0.6-4.5,1.9c-1,1.2-1.5,2.9-1.5,4.9c0,2.1,0.5,3.8,1.4,5c0.9,1.2,2.5,1.8,4.8,1.8c0.8,0,1.7-0.1,2.6-0.2      c0.9-0.2,1.8-0.4,2.6-0.7l1,5.5c-0.8,0.3-1.8,0.6-2.9,0.9c-1.2,0.2-2.5,0.4-3.9,0.4c-2.2,0-4.1-0.3-5.6-1      c-1.6-0.7-2.9-1.5-3.9-2.7c-1-1.1-1.8-2.4-2.2-4C237.1,390.4,236.9,388.8,236.9,387z"
   id="path5163" />
				<path
   class="st9"
   d="M275.1,381.1c-0.6-0.2-1.3-0.3-2.1-0.5c-0.8-0.2-1.7-0.2-2.6-0.2c-0.4,0-0.9,0-1.5,0.1      c-0.6,0.1-1,0.2-1.3,0.2v18.2h-6.8v-22.6c1.2-0.4,2.6-0.8,4.3-1.2c1.6-0.4,3.5-0.6,5.5-0.6c0.4,0,0.8,0,1.3,0.1      c0.5,0,1,0.1,1.5,0.2c0.5,0.1,1,0.2,1.5,0.3c0.5,0.1,1,0.2,1.3,0.4L275.1,381.1z"
   id="path5165" />
				<path
   class="st9"
   d="M301.7,387c0,1.9-0.3,3.6-0.8,5.2c-0.5,1.6-1.3,2.9-2.4,4c-1,1.1-2.3,2-3.7,2.6c-1.4,0.6-3,0.9-4.8,0.9      c-1.8,0-3.4-0.3-4.8-0.9c-1.4-0.6-2.7-1.5-3.7-2.6c-1-1.1-1.8-2.4-2.4-4c-0.6-1.6-0.9-3.3-0.9-5.2c0-1.9,0.3-3.6,0.9-5.1      c0.6-1.5,1.4-2.9,2.5-3.9c1-1.1,2.3-1.9,3.7-2.5c1.4-0.6,3-0.9,4.7-0.9c1.7,0,3.3,0.3,4.7,0.9c1.4,0.6,2.7,1.5,3.7,2.5      c1,1.1,1.8,2.4,2.4,3.9C301.5,383.4,301.7,385.1,301.7,387z M294.8,387c0-2.1-0.4-3.7-1.2-4.9c-0.8-1.2-2-1.8-3.6-1.8      c-1.5,0-2.7,0.6-3.6,1.8c-0.8,1.2-1.3,2.8-1.3,4.9s0.4,3.7,1.3,5c0.8,1.2,2,1.8,3.6,1.8c1.5,0,2.7-0.6,3.6-1.8      C294.4,390.7,294.8,389,294.8,387z"
   id="path5167" />
				<path
   class="st9"
   d="M313.8,394.1c1.2,0,2.1-0.1,2.6-0.4c0.5-0.2,0.8-0.7,0.8-1.4c0-0.5-0.3-1-1-1.4c-0.7-0.4-1.7-0.9-3-1.4      c-1.1-0.4-2-0.8-2.9-1.2c-0.9-0.4-1.6-0.9-2.2-1.5c-0.6-0.6-1.1-1.3-1.4-2.1c-0.3-0.8-0.5-1.8-0.5-2.9c0-2.2,0.8-4,2.5-5.3      c1.7-1.3,3.9-2,6.9-2c1.5,0,2.8,0.1,4.2,0.4c1.3,0.3,2.4,0.5,3.2,0.8l-1.2,5.3c-0.8-0.3-1.6-0.5-2.6-0.7c-0.9-0.2-2-0.3-3.1-0.3      c-2.1,0-3.2,0.6-3.2,1.8c0,0.3,0,0.5,0.1,0.7c0.1,0.2,0.3,0.4,0.5,0.6c0.3,0.2,0.6,0.4,1.1,0.6c0.5,0.2,1.1,0.5,1.8,0.8      c1.5,0.5,2.7,1.1,3.7,1.6c1,0.5,1.7,1.1,2.3,1.7c0.6,0.6,1,1.3,1.2,2.1c0.2,0.8,0.3,1.6,0.3,2.6c0,2.4-0.9,4.1-2.7,5.3      c-1.8,1.2-4.3,1.8-7.5,1.8c-2.1,0-3.9-0.2-5.3-0.5c-1.4-0.4-2.4-0.7-2.9-0.9l1.1-5.5c1.1,0.5,2.3,0.8,3.5,1.1      C311.4,394,312.6,394.1,313.8,394.1z"
   id="path5169" />
				<path
   class="st9"
   d="M335.8,394.1c1.2,0,2.1-0.1,2.6-0.4c0.5-0.2,0.8-0.7,0.8-1.4c0-0.5-0.3-1-1-1.4c-0.7-0.4-1.7-0.9-3-1.4      c-1.1-0.4-2-0.8-2.9-1.2c-0.9-0.4-1.6-0.9-2.2-1.5c-0.6-0.6-1.1-1.3-1.4-2.1c-0.3-0.8-0.5-1.8-0.5-2.9c0-2.2,0.8-4,2.5-5.3      c1.7-1.3,3.9-2,6.9-2c1.5,0,2.8,0.1,4.2,0.4c1.3,0.3,2.4,0.5,3.2,0.8l-1.2,5.3c-0.8-0.3-1.6-0.5-2.6-0.7c-0.9-0.2-2-0.3-3.1-0.3      c-2.1,0-3.2,0.6-3.2,1.8c0,0.3,0,0.5,0.1,0.7c0.1,0.2,0.3,0.4,0.5,0.6c0.3,0.2,0.6,0.4,1.1,0.6c0.5,0.2,1.1,0.5,1.8,0.8      c1.5,0.5,2.7,1.1,3.7,1.6c1,0.5,1.7,1.1,2.3,1.7c0.6,0.6,1,1.3,1.2,2.1s0.3,1.6,0.3,2.6c0,2.4-0.9,4.1-2.7,5.3      c-1.8,1.2-4.3,1.8-7.5,1.8c-2.1,0-3.9-0.2-5.3-0.5c-1.4-0.4-2.4-0.7-2.9-0.9l1.1-5.5c1.1,0.5,2.3,0.8,3.5,1.1      C333.5,394,334.6,394.1,335.8,394.1z"
   id="path5171" />
				<path
   class="st9"
   d="M350.8,369.1l6.8-1.1v7h8.1v5.6h-8.1v8.4c0,1.4,0.2,2.6,0.7,3.4c0.5,0.8,1.5,1.3,3,1.3      c0.7,0,1.5-0.1,2.2-0.2c0.8-0.1,1.5-0.3,2.1-0.6l1,5.3c-0.8,0.3-1.7,0.6-2.7,0.9c-1,0.2-2.2,0.4-3.7,0.4c-1.8,0-3.4-0.2-4.6-0.7      c-1.2-0.5-2.2-1.2-2.9-2.1c-0.7-0.9-1.2-2-1.5-3.2c-0.3-1.3-0.4-2.7-0.4-4.2V369.1z"
   id="path5173" />
				<path
   class="st9"
   d="M378.8,374.4c2,0,3.7,0.2,5,0.7c1.3,0.5,2.4,1.1,3.2,2c0.8,0.8,1.4,1.9,1.7,3.1c0.3,1.2,0.5,2.6,0.5,4v14.1      c-1,0.2-2.3,0.5-4,0.7c-1.7,0.3-3.8,0.4-6.3,0.4c-1.5,0-2.9-0.1-4.2-0.4c-1.3-0.3-2.3-0.7-3.2-1.3c-0.9-0.6-1.6-1.4-2.1-2.4      c-0.5-1-0.7-2.2-0.7-3.7c0-1.4,0.3-2.6,0.8-3.5c0.6-1,1.3-1.7,2.2-2.3c0.9-0.6,2-1,3.2-1.2c1.2-0.3,2.5-0.4,3.8-0.4      c0.9,0,1.7,0,2.3,0.1c0.7,0.1,1.2,0.2,1.7,0.3v-0.6c0-1.1-0.3-2.1-1-2.8c-0.7-0.7-1.9-1-3.6-1c-1.2,0-2.3,0.1-3.4,0.2      c-1.1,0.2-2.1,0.4-2.9,0.7l-0.9-5.4c0.4-0.1,0.9-0.2,1.5-0.4c0.6-0.1,1.2-0.3,1.9-0.4c0.7-0.1,1.4-0.2,2.2-0.3      C377.2,374.5,378,374.4,378.8,374.4z M379.3,394.2c0.7,0,1.3,0,1.9,0c0.6,0,1.1-0.1,1.5-0.1v-5.1c-0.3-0.1-0.7-0.1-1.2-0.2      c-0.5-0.1-1-0.1-1.5-0.1c-0.6,0-1.2,0-1.8,0.1c-0.6,0.1-1.1,0.2-1.5,0.4c-0.4,0.2-0.8,0.5-1,0.9c-0.2,0.4-0.4,0.8-0.4,1.4      c0,1.1,0.4,1.8,1.1,2.2C377.1,394,378.1,394.2,379.3,394.2z"
   id="path5175" />
				<path
   class="st9"
   d="M404.8,399.4c-2,0-3.6-0.2-4.8-0.6c-1.2-0.4-2.2-0.9-2.9-1.7c-0.7-0.7-1.2-1.6-1.5-2.6      c-0.3-1-0.4-2.2-0.4-3.4v-26.3l6.8-1.1v26c0,0.6,0,1.2,0.1,1.6c0.1,0.5,0.3,0.9,0.5,1.2c0.3,0.3,0.6,0.6,1.1,0.8      c0.5,0.2,1.1,0.3,2,0.4L404.8,399.4z"
   id="path5177" />
				<path
   class="st9"
   d="M416.4,383.6c0.7-0.7,1.4-1.5,2.1-2.3c0.7-0.8,1.4-1.6,2.1-2.3c0.7-0.8,1.3-1.5,1.9-2.2      c0.6-0.7,1.1-1.3,1.5-1.8h8c-1.6,1.8-3.2,3.6-4.7,5.3c-1.5,1.7-3.2,3.4-5,5.2c0.9,0.8,1.8,1.8,2.8,2.9c1,1.1,1.9,2.3,2.8,3.5      c0.9,1.2,1.7,2.4,2.5,3.6c0.8,1.2,1.4,2.3,1.9,3.3h-7.8c-0.5-0.8-1-1.7-1.7-2.6c-0.6-1-1.3-1.9-2-2.9c-0.7-1-1.4-1.9-2.2-2.8      c-0.8-0.9-1.5-1.6-2.3-2.2v10.5h-6.8v-34.1l6.8-1.1V383.6z"
   id="path5179" />
			</g>
			<g
   id="g5201">
				<path
   class="st9"
   d="M448.9,395.4c1.6,0,2.8-0.3,3.6-0.8c0.7-0.6,1.1-1.3,1.1-2.3c0-0.6-0.1-1.1-0.4-1.6      c-0.3-0.4-0.6-0.8-1.1-1.2c-0.5-0.3-1-0.7-1.7-1c-0.7-0.3-1.4-0.6-2.3-0.9c-0.9-0.3-1.7-0.7-2.5-1c-0.8-0.4-1.5-0.8-2.1-1.4      c-0.6-0.6-1.1-1.2-1.5-2c-0.4-0.8-0.6-1.7-0.6-2.8c0-2.3,0.8-4,2.3-5.3c1.6-1.3,3.7-1.9,6.4-1.9c1.6,0,3,0.2,4.2,0.5      c1.2,0.3,2.2,0.7,2.9,1.1l-1.4,3.7c-0.8-0.5-1.7-0.8-2.7-1c-1-0.2-2-0.4-3-0.4c-1.2,0-2.2,0.3-2.9,0.8c-0.7,0.5-1,1.2-1,2.1      c0,0.6,0.1,1,0.3,1.4c0.2,0.4,0.6,0.8,1,1.1c0.4,0.3,0.9,0.6,1.5,0.9c0.6,0.3,1.2,0.5,1.9,0.8c1.2,0.4,2.2,0.9,3.2,1.3      c0.9,0.4,1.7,1,2.3,1.6c0.6,0.6,1.1,1.3,1.5,2.2c0.3,0.8,0.5,1.8,0.5,3c0,2.3-0.8,4-2.4,5.3c-1.6,1.2-3.9,1.9-7,1.9      c-1,0-2-0.1-2.8-0.2c-0.9-0.1-1.6-0.3-2.3-0.5c-0.7-0.2-1.2-0.4-1.7-0.6c-0.5-0.2-0.9-0.4-1.2-0.6l1.3-3.7      c0.6,0.4,1.5,0.7,2.6,1.1C446,395.2,447.4,395.4,448.9,395.4z"
   id="path5183" />
				<path
   class="st9"
   d="M489.6,386.2c0,2.1-0.3,4-1,5.7c-0.6,1.6-1.5,3-2.6,4.1c-1.1,1.1-2.4,1.9-3.8,2.5c-1.5,0.6-3,0.8-4.7,0.8      s-3.2-0.3-4.7-0.8c-1.5-0.6-2.8-1.4-3.9-2.5c-1.1-1.1-2-2.5-2.6-4.1c-0.6-1.6-1-3.5-1-5.7c0-2.1,0.3-4,1-5.7      c0.6-1.6,1.5-3,2.7-4.1c1.1-1.1,2.4-1.9,3.9-2.5c1.5-0.6,3-0.8,4.7-0.8c1.6,0,3.2,0.3,4.7,0.8c1.5,0.6,2.7,1.4,3.8,2.5      c1.1,1.1,2,2.5,2.6,4.1C489.3,382.2,489.6,384.1,489.6,386.2z M470.1,386.2c0,1.4,0.2,2.6,0.5,3.7c0.3,1.1,0.8,2.1,1.5,2.9      c0.6,0.8,1.4,1.4,2.3,1.8c0.9,0.4,1.9,0.7,3.1,0.7c1.1,0,2.2-0.2,3.1-0.7c0.9-0.4,1.7-1,2.3-1.8c0.6-0.8,1.1-1.7,1.5-2.9      c0.3-1.1,0.5-2.4,0.5-3.7c0-1.4-0.2-2.6-0.5-3.7c-0.3-1.1-0.8-2.1-1.5-2.9c-0.6-0.8-1.4-1.4-2.3-1.8c-0.9-0.4-1.9-0.6-3.1-0.6      c-1.2,0-2.2,0.2-3.1,0.6c-0.9,0.4-1.7,1-2.3,1.8c-0.6,0.8-1.1,1.7-1.5,2.9C470.2,383.6,470.1,384.9,470.1,386.2z"
   id="path5185" />
				<path
   class="st9"
   d="M514.4,394.8v3.9h-15.8v-25h4.5v21.1H514.4z"
   id="path5187" />
				<path
   class="st9"
   d="M530.9,399.3c-1.7,0-3.2-0.2-4.4-0.7c-1.2-0.5-2.2-1.2-3.1-2.1c-0.8-0.9-1.4-1.9-1.8-3.1      c-0.4-1.2-0.6-2.5-0.6-4v-15.6h4.6v15.2c0,1.1,0.1,2.1,0.4,2.9c0.3,0.8,0.6,1.5,1.1,2c0.5,0.5,1,0.9,1.7,1.1      c0.6,0.2,1.4,0.4,2.1,0.4c0.8,0,1.5-0.1,2.2-0.4c0.6-0.2,1.2-0.6,1.7-1.1c0.5-0.5,0.8-1.2,1.1-2c0.3-0.8,0.4-1.8,0.4-2.9v-15.2      h4.6v15.6c0,1.4-0.2,2.8-0.6,4c-0.4,1.2-1,2.3-1.8,3.1c-0.8,0.9-1.8,1.6-3.1,2.1C534.1,399.1,532.6,399.3,530.9,399.3z"
   id="path5189" />
				<path
   class="st9"
   d="M568,373.7v3.9h-7.7v21.1h-4.6v-21.1h-7.7v-3.9H568z"
   id="path5191" />
				<path
   class="st9"
   d="M575.5,373.7h4.5v25h-4.5V373.7z"
   id="path5193" />
				<path
   class="st9"
   d="M613.2,386.2c0,2.1-0.3,4-1,5.7c-0.6,1.6-1.5,3-2.6,4.1c-1.1,1.1-2.4,1.9-3.8,2.5c-1.5,0.6-3,0.8-4.7,0.8      c-1.7,0-3.2-0.3-4.7-0.8c-1.5-0.6-2.8-1.4-3.9-2.5c-1.1-1.1-2-2.5-2.6-4.1c-0.7-1.6-1-3.5-1-5.7c0-2.1,0.3-4,1-5.7      c0.6-1.6,1.5-3,2.7-4.1c1.1-1.1,2.4-1.9,3.9-2.5c1.5-0.6,3-0.8,4.7-0.8c1.6,0,3.2,0.3,4.7,0.8c1.5,0.6,2.7,1.4,3.8,2.5      c1.1,1.1,2,2.5,2.6,4.1C612.9,382.2,613.2,384.1,613.2,386.2z M593.7,386.2c0,1.4,0.2,2.6,0.5,3.7c0.3,1.1,0.8,2.1,1.5,2.9      c0.6,0.8,1.4,1.4,2.3,1.8c0.9,0.4,1.9,0.7,3.1,0.7c1.1,0,2.2-0.2,3.1-0.7c0.9-0.4,1.7-1,2.3-1.8c0.6-0.8,1.1-1.7,1.5-2.9      c0.3-1.1,0.5-2.4,0.5-3.7c0-1.4-0.2-2.6-0.5-3.7c-0.3-1.1-0.8-2.1-1.5-2.9c-0.6-0.8-1.4-1.4-2.3-1.8c-0.9-0.4-1.9-0.6-3.1-0.6      c-1.2,0-2.2,0.2-3.1,0.6c-0.9,0.4-1.7,1-2.3,1.8c-0.6,0.8-1.1,1.7-1.5,2.9C593.9,383.6,593.7,384.9,593.7,386.2z"
   id="path5195" />
				<path
   class="st9"
   d="M639,398.8c-0.8-1.4-1.7-2.8-2.7-4.4c-1-1.6-2.1-3.2-3.1-4.8c-1.1-1.6-2.2-3.2-3.3-4.7      c-1.1-1.5-2.2-2.9-3.2-4.1v17.9h-4.5v-25h3.7c1,1,2,2.2,3.1,3.6c1.1,1.4,2.2,2.8,3.3,4.3c1.1,1.5,2.2,3,3.2,4.5      c1,1.5,2,2.9,2.8,4.2v-16.6h4.5v25H639z"
   id="path5197" />
				<path
   class="st9"
   d="M658.9,395.4c1.6,0,2.8-0.3,3.6-0.8c0.7-0.6,1.1-1.3,1.1-2.3c0-0.6-0.1-1.1-0.4-1.6      c-0.3-0.4-0.6-0.8-1.1-1.2c-0.5-0.3-1-0.7-1.7-1c-0.7-0.3-1.4-0.6-2.3-0.9c-0.9-0.3-1.7-0.7-2.5-1c-0.8-0.4-1.5-0.8-2.1-1.4      c-0.6-0.6-1.1-1.2-1.5-2c-0.4-0.8-0.6-1.7-0.6-2.8c0-2.3,0.8-4,2.3-5.3c1.6-1.3,3.7-1.9,6.4-1.9c1.6,0,3,0.2,4.2,0.5      c1.2,0.3,2.2,0.7,2.9,1.1l-1.4,3.7c-0.8-0.5-1.7-0.8-2.7-1c-1-0.2-2-0.4-3-0.4c-1.2,0-2.2,0.3-2.9,0.8c-0.7,0.5-1,1.2-1,2.1      c0,0.6,0.1,1,0.3,1.4c0.2,0.4,0.6,0.8,1,1.1c0.4,0.3,0.9,0.6,1.5,0.9c0.6,0.3,1.2,0.5,1.9,0.8c1.2,0.4,2.2,0.9,3.2,1.3      c0.9,0.4,1.7,1,2.3,1.6c0.6,0.6,1.1,1.3,1.5,2.2c0.3,0.8,0.5,1.8,0.5,3c0,2.3-0.8,4-2.4,5.3c-1.6,1.2-3.9,1.9-7,1.9      c-1,0-2-0.1-2.8-0.2c-0.9-0.1-1.6-0.3-2.3-0.5c-0.7-0.2-1.2-0.4-1.7-0.6c-0.5-0.2-0.9-0.4-1.2-0.6l1.3-3.7      c0.6,0.4,1.5,0.7,2.6,1.1C656,395.2,657.4,395.4,658.9,395.4z"
   id="path5199" />
			</g>
		</g>
		<g
   id="g5233">
			<circle
   class="st9"
   cx="198.7"
   cy="366.2"
   r="4"
   id="circle5205" />
			<circle
   class="st9"
   cx="211.4"
   cy="354.8"
   r="2.6"
   id="circle5207" />
			<path
   class="st9"
   d="M192,356.3c-0.1,0-0.2,0-0.3,0c-1.7,0-3.1,1.3-3.2,3c-0.2,1.8,1.2,3.4,3,3.6c0.1,0,0.2,0,0.3,0     c1.7,0,3.1-1.3,3.2-3C195.1,358.1,193.8,356.5,192,356.3z"
   id="path5209" />
			<circle
   class="st9"
   cx="186.1"
   cy="354.3"
   r="2.6"
   id="circle5211" />
			<path
   class="st9"
   d="M206.2,356.8c-0.1,0-0.2,0-0.3,0c-1.7,0-3.1,1.3-3.2,3c-0.2,1.8,1.2,3.4,3,3.6c0.1,0,0.2,0,0.3,0     c1.7,0,3.1-1.3,3.2-3C209.3,358.6,208,357,206.2,356.8z"
   id="path5213" />
			<path
   class="st9"
   d="M196,359.9c0,0.3-0.1,0.6-0.2,0.9c0.5,0,1.1-0.1,1.6-0.1c1.5,0,3,0.2,4.4,0.4c-0.1-0.5-0.2-1-0.1-1.5     c0.1-0.7,0.3-1.3,0.6-1.8c-1.6-0.3-3.2-0.5-4.8-0.5c-0.6,0-1.3,0-1.9,0.1C195.8,358.2,196,359.1,196,359.9z"
   id="path5215" />
			<g
   id="g5221">
				<path
   class="st9"
   d="M180,396.2c-2.9-3.7-4.6-8.4-4.6-13.4c0,0,0,0,0,0c-1.2,1.5-2.2,3-3,4.5c1,5.4,3.7,10.3,7.5,13.9      C179.5,399.6,179.6,397.9,180,396.2z"
   id="path5217" />
				<path
   class="st9"
   d="M172.9,384.4c0.7-1.1,1.6-2.3,2.6-3.4c0.7-8.3,5.9-15.3,13.2-18.4c-0.8-0.8-1.3-1.9-1.3-3.2      c-9.1,3.9-15.4,12.9-15.4,23.3c0,1,0.1,1.9,0.2,2.8C172.4,385.2,172.6,384.8,172.9,384.4z"
   id="path5219" />
			</g>
			<path
   class="st9"
   d="M191.8,368.9C191.8,368.9,191.8,368.9,191.8,368.9c-32.2,19.8-26.8,42.7,3.4,42.7c1.3,0,2.6,0,3.9-0.1     c-31.5-3.4-19.1-23.3-1.5-38.8c0,0,0,0,0,0C197.4,372.6,191.9,368.9,191.8,368.9z"
   id="path5223" />
			<path
   class="st9"
   d="M204.9,368.9c-0.3,0.4-5.7,3.7-5.7,3.7c0,0,0,0,0,0c17.6,15.6,30,35.5-1.5,38.8c1.3,0.1,2.6,0.1,3.9,0.1     C231.7,411.6,237.1,388.7,204.9,368.9z"
   id="path5225" />
			<g
   id="g5231">
				<path
   class="st9"
   d="M218.9,378.5c1.4,1.5,2.7,2.9,3.8,4.4c0-0.1,0-0.1,0-0.2c0-9.4-5.1-17.5-12.6-21.9      c-0.2,1.2-0.9,2.2-1.9,2.9C213.7,366.8,217.7,372.2,218.9,378.5z"
   id="path5227" />
				<path
   class="st9"
   d="M215.9,400.1c0.2-1.4,0-3.1-0.5-4.8c-4,5.7-10.6,9.4-18,9.4c-6.6,0-12.5-2.9-16.5-7.5      c-0.2,1.6-0.2,3,0.2,4.3c0.1,0.4,0.3,0.7,0.4,1c4.3,3.5,9.9,5.6,15.9,5.6C204.7,408.1,211.3,405,215.9,400.1z"
   id="path5229" />
			</g>
		</g>
	</g>
</g>
</svg>
